<?xml version="1.0" encoding="UTF-8" standalone="no"?>
<!DOCTYPE svg PUBLIC "-//W3C//DTD SVG 1.0//EN" "http://www.w3.org/TR/2001/REC-SVG-20010904/DTD/svg10.dtd">
<!-- Created with Inkscape (http://www.inkscape.org/) -->
<svg
   xmlns:svg="http://www.w3.org/2000/svg"
   xmlns="http://www.w3.org/2000/svg"
   xmlns:inkscape="http://www.inkscape.org/namespaces/inkscape"
   version="1.0"
   width="800"
   height="700"
   id="svg2">
  <defs
     id="defs4">
  </defs>
  <g
     id="layer1">
    <path
       d="M 22.334611,317.90526 L 73.86751,313.39965 C 76.307984,334.05052 81.986945,350.99342 90.904393,364.22857 C 99.82163,377.46387 113.66699,388.16467 132.44047,396.33102 C 151.21369,404.49753 172.33372,408.58072 195.80061,408.58067 C 216.63881,408.58072 235.03669,405.48313 250.9943,399.28783 C 266.95139,393.09269 278.82554,384.59776 286.61676,373.80298 C 294.40745,363.00841 298.3029,351.22813 298.30322,338.46214 C 298.3029,325.50862 294.54824,314.19766 287.03917,304.52927 C 279.52952,294.86114 267.13914,286.74165 249.86791,280.17081 C 238.79135,275.8531 214.29216,269.14163 176.37017,260.03638 C 138.44781,250.93145 111.88348,242.34264 96.677176,234.2699 C 76.965053,223.94476 62.274928,211.13197 52.606695,195.83142 C 42.938356,180.5314 38.104214,163.4007 38.104266,144.43931 C 38.104214,123.60122 44.017835,104.12386 55.845076,86.007182 C 67.672265,67.891244 84.943756,54.139811 107.6596,44.752727 C 130.37523,35.366434 155.62542,30.673077 183.41018,30.672654 C 214.01053,30.673077 240.99722,35.601094 264.37034,45.456706 C 287.74289,55.313111 305.71836,69.81554 318.29686,88.963993 C 330.87467,108.11318 337.63306,129.79641 338.57207,154.01372 L 286.19441,157.95613 C 283.37806,131.86149 273.85062,112.14947 257.6119,98.820027 C 241.37272,85.491268 217.38975,78.826757 185.66296,78.826387 C 152.6217,78.826757 128.54486,84.881163 113.43244,96.989606 C 98.319743,109.09879 90.763502,123.69504 90.763555,140.77852 C 90.763502,155.60974 96.113876,167.81243 106.81478,177.38658 C 117.32778,186.96125 144.78379,196.77032 189.18296,206.81384 C 233.58176,216.85784 264.04154,225.6344 280.56236,233.14351 C 304.59197,244.21997 322.33278,258.25308 333.78489,275.24279 C 345.23626,292.23287 350.96214,311.80404 350.96251,333.95654 C 350.96214,355.92144 344.67307,376.61906 332.09525,396.04945 C 319.51681,415.4799 301.44746,430.59246 277.88717,441.38714 C 254.32635,452.18181 227.80898,457.57915 198.33502,457.57915 C 160.9758,457.57915 129.67125,452.13485 104.42122,441.2463 C 79.17092,430.3578 59.365029,413.97806 45.003491,392.10704 C 30.641795,370.23612 23.085554,345.50226 22.334611,317.90526 L 22.334611,317.90526 z M 172.81921,450.53914 L 172.81921,37.712664 L 451.32223,37.712664 L 451.32223,86.429591 L 227.44975,86.429591 L 227.44975,214.27626 L 421.19092,214.27626 L 421.19092,262.99314 L 227.44975,262.99314 L 227.44975,450.53914 L 172.81921,450.53914 z M 702.74832,37.712664 L 757.37882,37.712664 L 757.37882,276.22839 C 757.37845,317.71767 752.68509,350.66494 743.2988,375.07021 C 733.91177,399.47563 716.96881,419.32841 692.46988,434.6287 C 667.97037,449.92898 635.821,457.57915 596.02168,457.57915 C 557.34838,457.57915 525.71525,450.91458 501.12228,437.58551 C 476.5291,424.25643 458.97599,404.96685 448.46299,379.7166 C 437.94984,354.46651 432.69328,319.9705 432.69334,276.22839 L 432.69334,37.712664 L 487.32388,37.712664 L 487.32388,275.94677 C 487.32378,311.80404 490.65603,338.22759 497.32071,355.21735 C 503.98511,372.20732 515.43685,385.30174 531.67594,394.50065 C 547.91475,403.69962 567.76756,408.2991 591.2345,408.29905 C 631.40927,408.2991 660.03863,399.19401 677.12263,380.98383 C 694.20611,362.77375 702.74801,327.7614 702.74832,275.94677 L 702.74832,37.712664 z"
       id="text3921"
       style="font-size:109.16994476px;font-style:normal;font-variant:normal;font-weight:normal;font-stretch:normal;text-align:start;line-height:100%;writing-mode:lr-tb;text-anchor:start;fill:#8c090c;fill-opacity:1;stroke:none;stroke-width:1px;stroke-linecap:butt;stroke-linejoin:miter;stroke-opacity:1;font-family:Arial;-inkscape-font-specification:Arial" />
    <path
       d="M 41.011894,551.18908 L 47.753006,550.59974 C 48.072243,553.30107 48.815104,555.5174 49.981589,557.24872 C 51.148074,558.98003 52.959213,560.37981 55.415007,561.44803 C 57.870749,562.51631 60.633471,563.05045 63.703174,563.05045 C 66.429075,563.05045 68.835686,562.64526 70.923167,561.83484 C 73.010489,561.02446 74.563777,559.91323 75.582979,558.50115 C 76.602075,557.08907 77.11165,555.54809 77.11165,553.87816 C 77.11165,552.18372 76.620459,550.70412 75.638237,549.43938 C 74.655855,548.17469 73.035054,547.11254 70.775778,546.25298 C 69.326877,545.6882 66.122094,544.81026 61.161482,543.61921 C 56.200817,542.42816 52.725927,541.30468 50.736759,540.24866 C 48.158193,538.89801 46.236539,537.22195 44.971847,535.22048 C 43.707103,533.21905 43.074757,530.97816 43.074757,528.4978 C 43.074757,525.77195 43.848311,523.22413 45.395471,520.85424 C 46.942579,518.4845 49.201907,516.68562 52.173351,515.45769 C 55.144847,514.22987 58.447837,513.61591 62.082372,513.61586 C 66.085273,513.61591 69.615421,514.26057 72.672868,515.54977 C 75.730262,516.83913 78.081669,518.73622 79.727088,521.24104 C 81.372402,523.74596 82.256471,526.58238 82.379295,529.75024 L 75.527721,530.26599 C 75.159302,526.85249 73.912995,524.27392 71.788799,522.5303 C 69.664551,520.78678 66.527281,519.91496 62.377097,519.91491 C 58.054905,519.91496 54.90538,520.70695 52.928521,522.29088 C 50.951608,523.87486 49.963152,525.78426 49.963205,528.01892 C 49.963152,529.95906 50.663064,531.5553 52.062888,532.80768 C 53.438095,534.06017 57.029628,535.3433 62.837541,536.65712 C 68.645402,537.97094 72.629866,539.11904 74.790988,540.10132 C 77.934333,541.55022 80.254994,543.38592 81.753078,545.60838 C 83.251055,547.83083 84.000044,550.39102 84.000097,553.28876 C 84.000044,556.16206 83.177361,558.86952 81.532047,561.41121 C 79.886628,563.95296 77.522965,565.92982 74.441006,567.3419 C 71.358994,568.75398 67.890232,569.46002 64.034719,569.46002 C 59.147749,569.46002 55.052716,568.74779 51.749727,567.32346 C 48.446737,565.89912 45.855916,563.75649 43.977263,560.89551 C 42.09861,558.03453 41.110154,554.7991 41.011894,551.18908 L 41.011894,551.18908 z M 93.025049,522.16193 L 93.025049,514.5368 L 99.655593,514.5368 L 99.655593,522.16193 L 93.025049,522.16193 z M 93.025049,568.53907 L 93.025049,529.41874 L 99.655593,529.41874 L 99.655593,568.53907 L 93.025049,568.53907 z M 108.57003,571.78068 L 115.01642,572.73844 C 115.28652,574.72761 116.03557,576.17651 117.26344,577.08514 C 118.9088,578.31301 121.15582,578.92698 124.00449,578.92698 C 127.0742,578.92698 129.44404,578.31301 131.11397,577.08514 C 132.78385,575.85727 133.91352,574.13821 134.50291,571.92801 C 134.84671,570.57737 135.00631,567.74095 134.98179,563.41882 C 132.08394,566.83232 128.47397,568.53907 124.15188,568.53907 C 118.77372,568.53907 114.61123,566.59903 111.6643,562.7189 C 108.71737,558.83883 107.2439,554.18514 107.2439,548.7579 C 107.2439,545.02516 107.91925,541.58091 109.26994,538.42526 C 110.62058,535.26961 112.57906,532.8323 115.14537,531.11319 C 117.71162,529.39423 120.72607,528.53468 124.1887,528.53468 C 128.80551,528.53468 132.61195,530.40107 135.60801,534.13381 L 135.60801,529.41874 L 141.72285,529.41874 L 141.72285,563.23461 C 141.72285,569.32494 141.10276,573.64095 139.86264,576.18264 C 138.6224,578.72438 136.6578,580.73193 133.96877,582.2054 C 131.27969,583.67887 127.97058,584.4156 124.04137,584.4156 C 119.37538,584.4156 115.60581,583.36576 112.73258,581.26607 C 109.85929,579.16639 108.47182,576.00461 108.57003,571.78068 L 108.57003,571.78068 z M 114.05865,548.27902 C 114.05865,553.41159 115.0778,557.15664 117.1161,559.51412 C 119.15434,561.87171 121.70835,563.05045 124.7781,563.05045 C 127.82319,563.05045 130.37719,561.87784 132.44005,559.53256 C 134.50291,557.18733 135.53432,553.5098 135.53432,548.50005 C 135.53432,543.71129 134.47217,540.10132 132.34797,537.67009 C 130.22372,535.23891 127.66359,534.02335 124.66759,534.0233 C 121.72065,534.02335 119.21578,535.22053 117.15292,537.61483 C 115.09006,540.00924 114.05865,543.56395 114.05865,548.27902 L 114.05865,548.27902 z M 151.77921,568.53907 L 151.77921,529.41874 L 157.70989,529.41874 L 157.70989,534.90737 C 158.93776,532.99189 160.57088,531.45091 162.60917,530.28438 C 164.64742,529.11794 166.96813,528.53468 169.57126,528.53468 C 172.46901,528.53468 174.84498,529.13638 176.69912,530.33963 C 178.55316,531.54299 179.86085,533.22518 180.6222,535.38625 C 183.71642,530.81857 187.74388,528.53468 192.70455,528.53468 C 196.58463,528.53468 199.56838,529.60908 201.65581,531.75784 C 203.74318,533.90666 204.7869,537.21583 204.78695,541.6853 L 204.78695,568.53907 L 198.19317,568.53907 L 198.19317,543.89545 C 198.19312,541.24329 197.97827,539.33389 197.54857,538.16741 C 197.11877,537.00092 196.33903,536.0616 195.20942,535.34943 C 194.07976,534.63726 192.75363,534.2812 191.23108,534.28115 C 188.48062,534.2812 186.19672,535.19597 184.37951,537.02549 C 182.56219,538.85506 181.65356,541.78356 181.65361,545.81097 L 181.65361,568.53907 L 175.02307,568.53907 L 175.02307,543.12189 C 175.02301,540.17501 174.48274,537.96482 173.40226,536.49135 C 172.32168,535.01794 170.55354,534.2812 168.0978,534.28115 C 166.2314,534.2812 164.50621,534.77234 162.92228,535.75462 C 161.3383,536.73694 160.1902,538.17359 159.47803,540.0645 C 158.76586,541.95546 158.40981,544.68136 158.40981,548.2422 L 158.40981,568.53907 L 151.77921,568.53907 z M 240.33413,568.53907 L 240.33413,562.7926 C 237.28894,567.21294 233.15101,569.42314 227.92024,569.42314 C 225.61183,569.42314 223.45689,568.98113 221.45541,568.09707 C 219.45399,567.21294 217.96827,566.10172 216.99825,564.76333 C 216.02817,563.42494 215.3467,561.78571 214.95382,559.84567 C 214.68366,558.5441 214.54858,556.48129 214.54858,553.65713 L 214.54858,529.41874 L 221.17918,529.41874 L 221.17918,551.11544 C 221.17918,554.57807 221.3142,556.91104 221.58436,558.11435 C 222.00181,559.85798 222.88593,561.22705 224.23657,562.22164 C 225.58727,563.21622 227.25714,563.71349 229.24637,563.71349 C 231.23548,563.71349 233.10188,563.20391 234.8455,562.18476 C 236.58908,561.16567 237.82308,559.77815 238.54755,558.02227 C 239.27198,556.26639 239.63422,553.71857 239.63427,550.37871 L 239.63427,529.41874 L 246.26481,529.41874 L 246.26481,568.53907 L 240.33413,568.53907 z M 256.68954,568.53907 L 256.68954,529.41874 L 262.65704,529.41874 L 262.65704,534.98106 C 265.53028,530.68349 269.68052,528.53468 275.10781,528.53468 C 277.46529,528.53468 279.63254,528.9583 281.60945,529.8055 C 283.58631,530.6528 285.0659,531.76402 286.04823,533.13923 C 287.03051,534.51449 287.71811,536.14755 288.11109,538.03846 C 288.35664,539.26638 288.47941,541.41519 288.47946,544.48484 L 288.47946,568.53907 L 281.84886,568.53907 L 281.84886,544.74269 C 281.84886,542.04141 281.59096,540.02155 281.07531,538.68311 C 280.55956,537.34473 279.64479,536.2765 278.33097,535.47833 C 277.01715,534.68026 275.47612,534.2812 273.70798,534.28115 C 270.88387,534.2812 268.44652,535.17753 266.39596,536.97023 C 264.34541,538.76293 263.32013,542.16418 263.32013,547.17392 L 263.32013,568.53907 L 256.68954,568.53907 z M 324.06346,568.53907 L 324.06346,563.60297 C 321.5831,567.4831 317.93631,569.42314 313.12303,569.42314 C 310.0042,569.42314 307.13709,568.56364 304.52171,566.84458 C 301.90632,565.12557 299.88033,562.72509 298.44369,559.64307 C 297.00709,556.56111 296.28875,553.01866 296.28875,549.01576 C 296.28875,545.11111 296.93953,541.56866 298.24109,538.38844 C 299.54266,535.20822 301.49501,532.77086 304.09808,531.07637 C 306.70121,529.38192 309.61127,528.53468 312.82836,528.53468 C 315.18584,528.53468 317.28553,529.03199 319.12741,530.02653 C 320.96919,531.02116 322.46722,532.31655 323.62145,533.91278 L 323.62145,514.5368 L 330.21518,514.5368 L 330.21518,568.53907 L 324.06346,568.53907 z M 303.1035,549.01576 C 303.1035,554.0255 304.15947,557.77055 306.27146,560.25085 C 308.3834,562.73121 310.87602,563.97134 313.74925,563.97134 C 316.64705,563.97134 319.10892,562.78647 321.13497,560.41663 C 323.16095,558.04684 324.17398,554.43074 324.17398,549.56828 C 324.17398,544.21474 323.14252,540.28553 321.07971,537.78061 C 319.01685,535.27579 316.47515,534.02335 313.45458,534.0233 C 310.50765,534.02335 308.04573,535.22666 306.06887,537.63327 C 304.09195,540.03993 303.1035,543.83411 303.1035,549.01576 L 303.1035,549.01576 z M 362.81548,568.53907 L 362.81548,514.5368 L 399.24672,514.5368 L 399.24672,520.9095 L 369.96172,520.9095 L 369.96172,537.63327 L 395.30526,537.63327 L 395.30526,544.00596 L 369.96172,544.00596 L 369.96172,568.53907 L 362.81548,568.53907 z M 407.64546,568.53907 L 407.64546,529.41874 L 413.61296,529.41874 L 413.61296,535.34943 C 415.13551,532.57445 416.54146,530.74487 417.83077,529.86075 C 419.12002,528.97674 420.53823,528.53468 422.08534,528.53468 C 424.3201,528.53468 426.59169,529.24684 428.90009,530.67118 L 426.61625,536.82284 C 424.9954,535.86513 423.37459,535.3863 421.75385,535.38625 C 420.30489,535.3863 419.00338,535.82218 417.84915,536.69394 C 416.69492,537.56576 415.87224,538.77524 415.3811,540.32235 C 414.64437,542.67988 414.276,545.25845 414.276,548.05799 L 414.276,568.53907 L 407.64546,568.53907 z M 459.69545,555.94102 L 466.54702,556.78822 C 465.46649,560.79112 463.46501,563.8977 460.5427,566.1079 C 457.62028,568.31804 453.88754,569.42314 449.34442,569.42314 C 443.62246,569.42314 439.08542,567.66113 435.7333,564.13711 C 432.38116,560.61309 430.7051,555.67086 430.7051,549.31043 C 430.7051,542.72901 432.3996,537.62101 435.78856,533.98648 C 439.1775,530.35194 443.57333,528.53468 448.97605,528.53468 C 454.20677,528.53468 458.47983,530.31512 461.79513,533.87596 C 465.11038,537.43686 466.768,542.4466 466.76805,548.90524 C 466.768,549.29817 466.75574,549.88757 466.73123,550.67338 L 437.55675,550.67338 C 437.80229,554.97101 439.0179,558.26169 441.20354,560.54558 C 443.38917,562.82942 446.11507,563.97134 449.38124,563.97134 C 451.81242,563.97134 453.88754,563.33287 455.6066,562.05587 C 457.32561,560.77887 458.68856,558.74057 459.69545,555.94102 L 459.69545,555.94102 z M 437.92511,545.22158 L 459.76914,545.22158 C 459.47442,541.9309 458.63943,539.46285 457.26422,537.81743 C 455.15228,535.26348 452.41407,533.98648 449.0497,533.98648 C 446.00456,533.98648 443.44443,535.00563 441.36931,537.04387 C 439.29419,539.08222 438.14609,541.80807 437.92511,545.22158 L 437.92511,545.22158 z M 500.54709,568.53907 L 500.54709,562.7926 C 497.5019,567.21294 493.36397,569.42314 488.1332,569.42314 C 485.82474,569.42314 483.6698,568.98113 481.66838,568.09707 C 479.66695,567.21294 478.18118,566.10172 477.21116,564.76333 C 476.24114,563.42494 475.55967,561.78571 475.16673,559.84567 C 474.89663,558.5441 474.76155,556.48129 474.76155,553.65713 L 474.76155,529.41874 L 481.39209,529.41874 L 481.39209,551.11544 C 481.39209,554.57807 481.52717,556.91104 481.79733,558.11435 C 482.21477,559.85798 483.09884,561.22705 484.44954,562.22164 C 485.80018,563.21622 487.47011,563.71349 489.45928,563.71349 C 491.44845,563.71349 493.31485,563.20391 495.05847,562.18476 C 496.80204,561.16567 498.03604,559.77815 498.76052,558.02227 C 499.48494,556.26639 499.84718,553.71857 499.84718,550.37871 L 499.84718,529.41874 L 506.47778,529.41874 L 506.47778,568.53907 L 500.54709,568.53907 z M 542.28286,568.53907 L 542.28286,563.60297 C 539.8025,567.4831 536.15566,569.42314 531.34238,569.42314 C 528.22355,569.42314 525.35644,568.56364 522.74111,566.84458 C 520.12567,565.12557 518.09968,562.72509 516.66309,559.64307 C 515.22644,556.56111 514.50815,553.01866 514.50815,549.01576 C 514.50815,545.11111 515.15893,541.56866 516.46044,538.38844 C 517.76201,535.20822 519.71435,532.77086 522.31748,531.07637 C 524.92056,529.38192 527.83062,528.53468 531.04771,528.53468 C 533.40525,528.53468 535.50493,529.03199 537.34676,530.02653 C 539.18854,531.02116 540.68657,532.31655 541.8408,533.91278 L 541.8408,514.5368 L 548.43452,514.5368 L 548.43452,568.53907 L 542.28286,568.53907 z M 521.3229,549.01576 C 521.32285,554.0255 522.37887,557.77055 524.49081,560.25085 C 526.60275,562.73121 529.09536,563.97134 531.9686,563.97134 C 534.8664,563.97134 537.32832,562.78647 539.35437,560.41663 C 541.3803,558.04684 542.39332,554.43074 542.39338,549.56828 C 542.39332,544.21474 541.36192,540.28553 539.29911,537.78061 C 537.23619,535.27579 534.6945,534.02335 531.67393,534.0233 C 528.727,534.02335 526.26508,535.22666 524.28822,537.63327 C 522.3113,540.03993 521.32285,543.83411 521.3229,549.01576 L 521.3229,549.01576 z"
       id="text3925"
       style="font-size:14.28064156px;font-style:normal;font-variant:normal;font-weight:normal;font-stretch:normal;text-align:start;line-height:100%;writing-mode:lr-tb;text-anchor:start;fill:#8c090c;fill-opacity:1;stroke:none;stroke-width:1px;stroke-linecap:butt;stroke-linejoin:miter;stroke-opacity:1;font-family:Arial;-inkscape-font-specification:Arial" />
    <path
       d="M 41.012,664.38863 L 41.012,610.38636 L 61.382565,610.38636 C 64.967918,610.38641 67.706128,610.55831 69.59709,610.90206 C 72.249297,611.34418 74.471752,612.18524 76.264507,613.42537 C 78.057157,614.66555 79.49993,616.40305 80.592773,618.6377 C 81.685564,620.87252 82.231959,623.32826 82.232012,626.00503 C 82.231959,630.59733 80.770749,634.48359 77.848435,637.66376 C 74.926068,640.84403 69.646167,642.43414 62.008783,642.43408 L 48.158246,642.43408 L 48.158246,664.38863 L 41.012,664.38863 z M 48.158246,636.06139 L 62.119298,636.06139 C 66.736109,636.06139 70.014533,635.20189 71.954625,633.48283 C 73.894663,631.76382 74.864683,629.3449 74.864683,626.22601 C 74.864683,623.96679 74.293723,622.03288 73.151802,620.42428 C 72.009829,618.81579 70.505671,617.75369 68.639326,617.23793 C 67.435968,616.91875 65.213513,616.7591 61.971909,616.75905 L 48.158246,616.75905 L 48.158246,636.06139 z M 90.483358,664.38863 L 90.483358,625.2683 L 96.450863,625.2683 L 96.450863,631.19899 C 97.973458,628.42401 99.379357,626.59443 100.66867,625.71031 C 101.95792,624.82629 103.37613,624.38423 104.92329,624.38423 C 107.158,624.38423 109.42959,625.0964 111.73804,626.52074 L 109.45415,632.6724 C 107.83335,631.71469 106.21255,631.23581 104.59175,631.23581 C 103.14284,631.23581 101.84128,631.67174 100.6871,632.5435 C 99.532874,633.41531 98.710191,634.6248 98.219053,636.17191 C 97.48232,638.52944 97.113954,641.10801 97.113954,643.90755 L 97.113954,664.38863 L 90.483358,664.38863 z M 115.79002,618.01149 L 115.79002,610.38636 L 122.42062,610.38636 L 122.42062,618.01149 L 115.79002,618.01149 z M 115.79002,664.38863 L 115.79002,625.2683 L 122.42062,625.2683 L 122.42062,664.38863 L 115.79002,664.38863 z M 143.4174,664.38863 L 128.53546,625.2683 L 135.53442,625.2683 L 143.9331,648.69631 C 144.84174,651.22575 145.67668,653.85339 146.43803,656.57929 C 147.02737,654.51648 147.85006,652.03612 148.90603,649.13832 L 157.59943,625.2683 L 164.41418,625.2683 L 149.60594,664.38863 L 143.4174,664.38863 z M 195.79887,659.56304 C 193.34308,661.65047 190.97941,663.12394 188.70788,663.98344 C 186.43624,664.84295 183.99894,665.2727 181.39581,665.2727 C 177.09824,665.2727 173.79519,664.22286 171.48679,662.12317 C 169.17838,660.02354 168.02416,657.34059 168.02416,654.07442 C 168.02416,652.15895 168.46009,650.40919 169.33185,648.82521 C 170.20366,647.24128 171.34558,645.97041 172.75766,645.01265 C 174.16974,644.05494 175.75985,643.33046 177.52799,642.83927 C 178.82955,642.49552 180.79416,642.16398 183.42185,641.84469 C 188.7754,641.20621 192.71686,640.44497 195.24635,639.56085 C 195.27086,638.65221 195.28317,638.07512 195.28317,637.82953 C 195.28317,635.12819 194.65695,633.22497 193.40451,632.11988 C 191.71002,630.6219 189.19284,629.87291 185.85303,629.87286 C 182.7342,629.87291 180.43192,630.4193 178.9462,631.51209 C 177.46042,632.60494 176.3615,634.53885 175.64934,637.31383 L 169.16613,636.42976 C 169.75547,633.65478 170.72549,631.41389 172.07619,629.70708 C 173.42683,628.00038 175.37918,626.68651 177.93318,625.76557 C 180.48718,624.84473 183.44636,624.38423 186.81079,624.38423 C 190.1506,624.38423 192.86419,624.77716 194.95162,625.56297 C 197.039,626.34889 198.57385,627.33729 199.55623,628.52834 C 200.5385,629.71939 201.22611,631.22355 201.61904,633.04077 C 201.84002,634.17048 201.95053,636.20873 201.95058,639.15566 L 201.95058,647.9964 C 201.95053,654.16037 202.09174,658.05889 202.37421,659.692 C 202.65657,661.32505 203.21528,662.8906 204.05027,664.38863 L 197.125,664.38863 C 196.43734,663.01342 195.99534,661.40488 195.79887,659.56304 L 195.79887,659.56304 z M 195.24635,644.7548 C 192.83968,645.73713 189.22971,646.57207 184.41644,647.25967 C 181.69048,647.6526 179.7627,648.09466 178.63309,648.5858 C 177.50342,649.07694 176.63161,649.79528 176.0177,650.74074 C 175.40374,651.68619 175.09676,652.73604 175.09676,653.89021 C 175.09676,655.6584 175.76598,657.13187 177.10436,658.31061 C 178.44275,659.4894 180.40123,660.07875 182.97979,660.07875 C 185.53379,660.07875 187.80532,659.5201 189.79454,658.40269 C 191.78366,657.28533 193.24487,655.75661 194.17807,653.81657 C 194.89024,652.31854 195.24629,650.10839 195.24635,647.18597 L 195.24635,644.7548 z M 226.74155,658.45795 L 227.69926,664.31499 C 225.83286,664.70787 224.16298,664.90433 222.68952,664.90433 C 220.28285,664.90433 218.41646,664.52371 217.09038,663.76241 C 215.76425,663.00111 214.83105,662.0004 214.29078,660.76022 C 213.75052,659.5201 213.48041,656.91084 213.48041,652.9325 L 213.48041,630.42538 L 208.618,630.42538 L 208.618,625.2683 L 213.48041,625.2683 L 213.48041,615.58031 L 220.07413,611.60197 L 220.07413,625.2683 L 226.74155,625.2683 L 226.74155,630.42538 L 220.07413,630.42538 L 220.07413,653.30087 C 220.07413,655.19178 220.19077,656.40739 220.42406,656.94766 C 220.65735,657.48793 221.03802,657.91768 221.56598,658.23697 C 222.09399,658.5562 222.84911,658.7158 223.83144,658.7158 C 224.56817,658.7158 225.53819,658.62985 226.74155,658.45795 L 226.74155,658.45795 z M 269.47185,610.38636 L 276.61815,610.38636 L 276.61815,641.58684 C 276.61809,647.01413 276.00413,651.32396 274.77631,654.51648 C 273.54839,657.70896 271.33206,660.30591 268.12733,662.30738 C 264.9225,664.30881 260.717,665.30957 255.51085,665.30957 C 250.45192,665.30957 246.31399,664.43776 243.09696,662.69413 C 239.87986,660.95056 237.58371,658.42725 236.20851,655.12426 C 234.8333,651.82127 234.14564,647.3088 234.14564,641.58684 L 234.14564,610.38636 L 241.29194,610.38636 L 241.29194,641.55001 C 241.29194,646.24057 241.72782,649.69703 242.59964,651.91948 C 243.47145,654.14199 244.96943,655.85487 247.09368,657.05817 C 249.21792,658.26153 251.81487,658.86319 254.88463,658.86319 C 260.13991,658.86319 263.88496,657.67214 266.11973,655.29004 C 268.35444,652.90794 269.47179,648.32795 269.47185,641.55001 L 269.47185,610.38636 z M 287.70591,664.38863 L 287.70591,625.2683 L 293.67341,625.2683 L 293.67341,630.83062 C 296.54665,626.53305 300.69689,624.38423 306.12418,624.38423 C 308.48166,624.38423 310.64891,624.80786 312.62582,625.65505 C 314.60268,626.50235 316.08228,627.61358 317.0646,628.98879 C 318.04688,630.36405 318.73448,631.9971 319.12747,633.88801 C 319.37301,635.11594 319.49578,637.26475 319.49583,640.3344 L 319.49583,664.38863 L 312.86524,664.38863 L 312.86524,640.59225 C 312.86524,637.89097 312.60733,635.87111 312.09168,634.53267 C 311.57593,633.19428 310.66117,632.12606 309.34734,631.32788 C 308.03352,630.52982 306.49249,630.13076 304.72441,630.13071 C 301.90025,630.13076 299.46289,631.02708 297.41233,632.81979 C 295.36178,634.61249 294.3365,638.01374 294.3365,643.02348 L 294.3365,664.38863 L 287.70591,664.38863 z M 329.73635,618.01149 L 329.73635,610.38636 L 336.36694,610.38636 L 336.36694,618.01149 L 329.73635,618.01149 z M 329.73635,664.38863 L 329.73635,625.2683 L 336.36694,625.2683 L 336.36694,664.38863 L 329.73635,664.38863 z M 357.36373,664.38863 L 342.48178,625.2683 L 349.48069,625.2683 L 357.87943,648.69631 C 358.78801,651.22575 359.623,653.85339 360.3843,656.57929 C 360.97364,654.51648 361.79633,652.03612 362.85235,649.13832 L 371.54576,625.2683 L 378.36051,625.2683 L 363.55221,664.38863 L 357.36373,664.38863 z M 410.99763,651.79058 L 417.8492,652.63778 C 416.76862,656.64068 414.76719,659.74725 411.84488,661.95745 C 408.92246,664.1676 405.18972,665.2727 400.64655,665.2727 C 394.92464,665.2727 390.3876,663.51069 387.03548,659.98667 C 383.68336,656.46265 382.0073,651.52042 382.0073,645.15998 C 382.0073,638.57857 383.7018,633.47057 387.09074,629.83603 C 390.47968,626.2015 394.87551,624.38423 400.27818,624.38423 C 405.50895,624.38423 409.78196,626.16468 413.09731,629.72552 C 416.41256,633.28641 418.07018,638.29615 418.07023,644.7548 C 418.07018,645.14773 418.05793,645.73713 418.03341,646.52294 L 388.85887,646.52294 C 389.10447,650.82056 390.32008,654.11124 392.50572,656.39514 C 394.6913,658.67898 397.4172,659.8209 400.68342,659.8209 C 403.1146,659.8209 405.18972,659.18242 406.90878,657.90542 C 408.62779,656.62842 409.99074,654.59012 410.99763,651.79058 L 410.99763,651.79058 z M 389.22724,641.07113 L 411.07127,641.07113 C 410.77655,637.78045 409.94161,635.3124 408.5664,633.66698 C 406.45441,631.11304 403.71625,629.83603 400.35188,629.83603 C 397.30668,629.83603 394.74656,630.85518 392.67149,632.89343 C 390.59632,634.93178 389.44827,637.65763 389.22724,641.07113 L 389.22724,641.07113 z M 426.13742,664.38863 L 426.13742,625.2683 L 432.10493,625.2683 L 432.10493,631.19899 C 433.62754,628.42401 435.03344,626.59443 436.32275,625.71031 C 437.612,624.82629 439.03021,624.38423 440.57737,624.38423 C 442.81208,624.38423 445.08367,625.0964 447.39213,626.52074 L 445.10823,632.6724 C 443.48743,631.71469 441.86663,631.23581 440.24583,631.23581 C 438.79693,631.23581 437.49536,631.67174 436.34113,632.5435 C 435.18696,633.41531 434.36427,634.6248 433.87313,636.17191 C 433.13635,638.52944 432.76798,641.10801 432.76803,643.90755 L 432.76803,664.38863 L 426.13742,664.38863 z M 448.75502,652.71147 L 455.31193,651.68007 C 455.68029,654.30771 456.70557,656.32144 458.38776,657.72121 C 460.06994,659.12104 462.42135,659.8209 465.44198,659.8209 C 468.48711,659.8209 470.74639,659.20086 472.21986,657.96068 C 473.69332,656.7205 474.43005,655.26547 474.43005,653.59554 C 474.43005,652.09756 473.77927,650.91877 472.47771,650.05926 C 471.56907,649.46987 469.3098,648.72088 465.69983,647.81219 C 460.83737,646.58437 457.46687,645.52222 455.58821,644.62585 C 453.70956,643.72952 452.28517,642.48934 451.31515,640.90536 C 450.34513,639.32143 449.86012,637.57168 449.86012,635.6562 C 449.86012,633.91263 450.25918,632.29796 451.0573,630.81218 C 451.85542,629.32646 452.94213,628.09246 454.31734,627.11013 C 455.34875,626.34889 456.7547,625.70423 458.53514,625.17622 C 460.31554,624.64826 462.22488,624.38423 464.26318,624.38423 C 467.33289,624.38423 470.02809,624.82629 472.34881,625.71031 C 474.66947,626.59443 476.38235,627.79161 477.4875,629.3019 C 478.59255,630.81224 479.35385,632.8321 479.77134,635.36148 L 473.28813,636.24555 C 472.99341,634.23187 472.14003,632.6602 470.72801,631.53048 C 469.31593,630.40087 467.32063,629.83603 464.74206,629.83603 C 461.69693,629.83603 459.52355,630.33948 458.22204,631.34632 C 456.92047,632.35321 456.26969,633.53196 456.26969,634.8826 C 456.26969,635.74215 456.5398,636.51571 457.08006,637.20331 C 457.62033,637.91553 458.46758,638.50488 459.62181,638.97145 C 460.28485,639.21704 462.23719,639.78188 465.4788,640.66595 C 470.1693,641.91838 473.4416,642.94366 475.29574,643.74178 C 477.14978,644.53995 478.60486,645.70025 479.66083,647.22285 C 480.7168,648.74544 481.24481,650.63635 481.24481,652.89563 C 481.24481,655.10583 480.60015,657.18713 479.3109,659.13942 C 478.02159,661.09177 476.16137,662.60205 473.7302,663.67033 C 471.29897,664.73856 468.5485,665.2727 465.4788,665.2727 C 460.39536,665.2727 456.52141,664.21673 453.8569,662.10479 C 451.19238,659.9928 449.49176,656.86171 448.75502,652.71147 L 448.75502,652.71147 z M 489.16471,618.01149 L 489.16471,610.38636 L 495.79526,610.38636 L 495.79526,618.01149 L 489.16471,618.01149 z M 489.16471,664.38863 L 489.16471,625.2683 L 495.79526,625.2683 L 495.79526,664.38863 L 489.16471,664.38863 z M 520.40201,658.45795 L 521.35977,664.31499 C 519.49338,664.70787 517.82344,664.90433 516.35003,664.90433 C 513.94337,664.90433 512.07697,664.52371 510.75089,663.76241 C 509.42476,663.00111 508.49156,662.0004 507.9513,660.76022 C 507.41103,659.5201 507.14087,656.91084 507.14087,652.9325 L 507.14087,630.42538 L 502.27846,630.42538 L 502.27846,625.2683 L 507.14087,625.2683 L 507.14087,615.58031 L 513.73465,611.60197 L 513.73465,625.2683 L 520.40201,625.2683 L 520.40201,630.42538 L 513.73465,630.42538 L 513.73465,653.30087 C 513.73459,655.19178 513.85124,656.40739 514.08458,656.94766 C 514.31786,657.48793 514.69848,657.91768 515.2265,658.23697 C 515.75445,658.5562 516.50962,658.7158 517.49195,658.7158 C 518.22863,658.7158 519.1987,658.62985 520.40201,658.45795 L 520.40201,658.45795 z M 552.37609,659.56304 C 549.9203,661.65047 547.55664,663.12394 545.28505,663.98344 C 543.01347,664.84295 540.57611,665.2727 537.97303,665.2727 C 533.67546,665.2727 530.37242,664.22286 528.06401,662.12317 C 525.75561,660.02354 524.60138,657.34059 524.60138,654.07442 C 524.60138,652.15895 525.03731,650.40919 525.90907,648.82521 C 526.78088,647.24128 527.9228,645.97041 529.33488,645.01265 C 530.74691,644.05494 532.33702,643.33046 534.10521,642.83927 C 535.40672,642.49552 537.37138,642.16398 539.99902,641.84469 C 545.35256,641.20621 549.29408,640.44497 551.82357,639.56085 C 551.84808,638.65221 551.86034,638.07512 551.86039,637.82953 C 551.86034,635.12819 551.23412,633.22497 549.98174,632.11988 C 548.28724,630.6219 545.77006,629.87291 542.43025,629.87286 C 539.31142,629.87291 537.00914,630.4193 535.52342,631.51209 C 534.03764,632.60494 532.93873,634.53885 532.22656,637.31383 L 525.7433,636.42976 C 526.33269,633.65478 527.30271,631.41389 528.65341,629.70708 C 530.00405,628.00038 531.9564,626.68651 534.5104,625.76557 C 537.0644,624.84473 540.02359,624.38423 543.38801,624.38423 C 546.72782,624.38423 549.44142,624.77716 551.52884,625.56297 C 553.61622,626.34889 555.15107,627.33729 556.1334,628.52834 C 557.11567,629.71939 557.80333,631.22355 558.19626,633.04077 C 558.41724,634.17048 558.52775,636.20873 558.52781,639.15566 L 558.52781,647.9964 C 558.52775,654.16037 558.66896,658.05889 558.95143,659.692 C 559.23379,661.32505 559.7925,662.8906 560.62749,664.38863 L 553.70222,664.38863 C 553.01457,663.01342 552.57251,661.40488 552.37609,659.56304 L 552.37609,659.56304 z M 551.82357,644.7548 C 549.41685,645.73713 545.80688,646.57207 540.99361,647.25967 C 538.2677,647.6526 536.33992,648.09466 535.21031,648.5858 C 534.08065,649.07694 533.20883,649.79528 532.59492,650.74074 C 531.98096,651.68619 531.67398,652.73604 531.67398,653.89021 C 531.67398,655.6584 532.3432,657.13187 533.68159,658.31061 C 535.01997,659.4894 536.97845,660.07875 539.55701,660.07875 C 542.11096,660.07875 544.38255,659.5201 546.37177,658.40269 C 548.36088,657.28533 549.82209,655.75661 550.75529,653.81657 C 551.46746,652.31854 551.82352,650.10839 551.82357,647.18597 L 551.82357,644.7548 z M 532.37389,617.6063 L 532.37389,610.05481 L 539.29916,610.05481 L 539.29916,617.6063 L 532.37389,617.6063 z M 546.11392,617.6063 L 546.11392,610.05481 L 553.03913,610.05481 L 553.03913,617.6063 L 546.11392,617.6063 z M 583.31872,658.45795 L 584.27648,664.31499 C 582.41008,664.70787 580.74015,664.90433 579.26669,664.90433 C 576.86002,664.90433 574.99368,664.52371 573.66755,663.76241 C 572.34142,663.00111 571.40827,662.0004 570.868,660.76022 C 570.32774,659.5201 570.05758,656.91084 570.05758,652.9325 L 570.05758,630.42538 L 565.19517,630.42538 L 565.19517,625.2683 L 570.05758,625.2683 L 570.05758,615.58031 L 576.6513,611.60197 L 576.6513,625.2683 L 583.31872,625.2683 L 583.31872,630.42538 L 576.6513,630.42538 L 576.6513,653.30087 C 576.6513,655.19178 576.76794,656.40739 577.00128,656.94766 C 577.23457,657.48793 577.61519,657.91768 578.1432,658.23697 C 578.67116,658.5562 579.42633,658.7158 580.40866,658.7158 C 581.14534,658.7158 582.11536,658.62985 583.31872,658.45795 L 583.31872,658.45795 z M 620.96563,664.38863 L 606.63621,610.38636 L 613.96667,610.38636 L 622.18125,645.7862 C 623.06526,649.49443 623.82656,653.1781 624.46509,656.83714 C 625.84029,651.0661 626.65072,647.73855 626.89632,646.85448 L 637.17365,610.38636 L 645.79342,610.38636 L 653.52906,637.71901 C 655.4691,644.49695 656.86887,650.86964 657.72843,656.83714 C 658.41598,653.42364 659.31235,649.50669 660.41751,645.08634 L 668.88988,610.38636 L 676.073,610.38636 L 661.26475,664.38863 L 654.37631,664.38863 L 642.99382,623.24226 C 642.03606,619.80424 641.47122,617.6923 641.29938,616.90639 C 640.73449,619.3868 640.20653,621.49874 639.7154,623.24226 L 628.25927,664.38863 L 620.96563,664.38863 z M 681.89317,618.01149 L 681.89317,610.38636 L 688.52377,610.38636 L 688.52377,618.01149 L 681.89317,618.01149 z M 681.89317,664.38863 L 681.89317,625.2683 L 688.52377,625.2683 L 688.52377,664.38863 L 681.89317,664.38863 z M 725.4339,651.79058 L 732.28547,652.63778 C 731.20488,656.64068 729.20346,659.74725 726.28115,661.95745 C 723.35873,664.1676 719.62598,665.2727 715.08282,665.2727 C 709.36091,665.2727 704.82386,663.51069 701.47175,659.98667 C 698.11963,656.46265 696.44357,651.52042 696.44357,645.15998 C 696.44357,638.57857 698.13806,633.47057 701.527,629.83603 C 704.91594,626.2015 709.31178,624.38423 714.7145,624.38423 C 719.94522,624.38423 724.21828,626.16468 727.53358,629.72552 C 730.84883,633.28641 732.50645,638.29615 732.5065,644.7548 C 732.50645,645.14773 732.49419,645.73713 732.46968,646.52294 L 703.29514,646.52294 C 703.54074,650.82056 704.75635,654.11124 706.94199,656.39514 C 709.12762,658.67898 711.85347,659.8209 715.11969,659.8209 C 717.55087,659.8209 719.62598,659.18242 721.34505,657.90542 C 723.06405,656.62842 724.427,654.59012 725.4339,651.79058 L 725.4339,651.79058 z M 703.66351,641.07113 L 725.50759,641.07113 C 725.21287,637.78045 724.37787,635.3124 723.00267,633.66698 C 720.89068,631.11304 718.15252,629.83603 714.78814,629.83603 C 711.74301,629.83603 709.18282,630.85518 707.10776,632.89343 C 705.03259,634.93178 703.88454,637.65763 703.66351,641.07113 L 703.66351,641.07113 z M 740.64738,664.38863 L 740.64738,625.2683 L 746.61489,625.2683 L 746.61489,630.83062 C 749.48813,626.53305 753.63836,624.38423 759.0656,624.38423 C 761.42314,624.38423 763.59033,624.80786 765.56725,625.65505 C 767.54411,626.50235 769.0237,627.61358 770.00608,628.98879 C 770.9883,630.36405 771.67596,631.9971 772.06889,633.88801 C 772.31443,635.11594 772.4372,637.26475 772.43726,640.3344 L 772.43726,664.38863 L 765.80671,664.38863 L 765.80671,640.59225 C 765.80666,637.89097 765.54881,635.87111 765.03311,634.53267 C 764.5174,633.19428 763.60264,632.12606 762.28882,631.32788 C 760.97495,630.52982 759.43397,630.13076 757.66583,630.13071 C 754.84167,630.13076 752.40431,631.02708 750.35381,632.81979 C 748.30321,634.61249 747.27793,638.01374 747.27793,643.02348 L 747.27793,664.38863 L 740.64738,664.38863 z"
       id="text3929"
       style="font-size:14.28064156px;font-style:normal;font-variant:normal;font-weight:normal;font-stretch:normal;text-align:start;line-height:100%;writing-mode:lr-tb;text-anchor:start;fill:#8c090c;fill-opacity:1;stroke:none;stroke-width:1px;stroke-linecap:butt;stroke-linejoin:miter;stroke-opacity:1;font-family:Arial;-inkscape-font-specification:Arial" />
  </g>
</svg>
